<svg width="97" height="84" viewBox="0 0 97 84" fill="none" xmlns="http://www.w3.org/2000/svg">
<path d="M69.0518 41.5232C69.4067 41.257 69.7616 40.9909 70.1165 40.8134L74.1978 38.5066C76.061 40.4585 78.634 41.4345 81.1183 41.4345C83.6026 41.4345 86.0869 40.4585 88.0388 38.5953L92.0314 40.9021C94.3383 42.233 95.7579 44.6286 95.7579 47.2903V54.1221H82.8041" stroke="#662483" stroke-width="2" stroke-miterlimit="10" stroke-linecap="round" stroke-linejoin="round"/>
<path d="M35.8688 12.244C46.7819 19.8743 56.2754 9.22752 56.2754 9.22752L63.0185 12.244" fill="#662483" fill-opacity="0.1"/>
<path d="M46.7819 1.33093C40.7486 1.33093 35.8688 6.21077 35.8688 12.244C46.7819 19.8743 56.2754 9.22752 56.2754 9.22752L63.0185 12.244C63.0185 6.21077 58.1386 1.33093 52.1054 1.33093H46.7819Z" fill="#662483" fill-opacity="0.1"/>
<path fill-rule="evenodd" clip-rule="evenodd" d="M63.0185 12.244L56.2754 9.22752C56.2754 9.22752 46.7819 19.8743 35.8688 12.244C35.8688 6.21077 40.7486 1.33093 46.7819 1.33093H52.1054C58.1386 1.33093 63.0185 6.21077 63.0185 12.244Z" fill="#662483" fill-opacity="0.1"/>
<path d="M35.8688 12.244V21.2052C35.8688 28.7468 41.9908 34.78 49.4436 34.78C56.8965 34.78 62.9298 28.7468 63.0185 21.2939V12.244M35.8688 12.244C35.8688 6.21077 40.7486 1.33093 46.7819 1.33093H52.1054C58.1386 1.33093 63.0185 6.21077 63.0185 12.244M35.8688 12.244C46.7819 19.8743 56.2754 9.22752 56.2754 9.22752L63.0185 12.244" stroke="#662483" stroke-width="2" stroke-miterlimit="10" stroke-linejoin="round"/>
<path d="M79.8762 18.7211C76.8595 18.7211 74.3752 21.2054 74.3752 24.222C77.8778 26.0675 83.78 23.6008 83.78 23.6008L88.0388 24.222C88.0388 21.2054 85.5545 18.7211 82.5379 18.7211H79.8762Z" fill="#662483" fill-opacity="0.1"/>
<path d="M74.3752 24.222C74.3752 21.2054 76.8595 18.7211 79.8762 18.7211H82.5379C85.5545 18.7211 88.0388 21.2054 88.0388 24.222M74.3752 24.222V28.7469C74.3752 32.5621 77.4806 35.5787 81.207 35.5787C85.0222 35.5787 88.0388 32.5621 88.0388 28.7469V24.222M74.3752 24.222C77.8778 26.0675 83.78 23.6008 83.78 23.6008L88.0388 24.222" stroke="#662483" stroke-width="2" stroke-miterlimit="10" stroke-linejoin="round"/>
<path d="M27.7061 41.5232C27.3512 41.257 26.9963 40.9909 26.6414 40.8134L22.5601 38.5066C20.6969 40.4585 18.1239 41.4345 15.6396 41.4345C13.1553 41.4345 10.671 40.4585 8.71905 38.5953L4.72644 40.9021C2.4196 42.233 1 44.6286 1 47.2903V54.1221H17" stroke="#662483" stroke-width="2" stroke-miterlimit="10" stroke-linecap="round" stroke-linejoin="round"/>
<path d="M16.8817 18.7211C19.8983 18.7211 22.3826 21.2054 22.3826 24.222C18.8801 26.0675 12.9778 23.6008 12.9778 23.6008L8.71906 24.222C8.71906 21.2054 11.2033 18.7211 14.22 18.7211H16.8817Z" fill="#662483" fill-opacity="0.1"/>
<path d="M22.3826 24.222C22.3826 21.2054 19.8983 18.7211 16.8817 18.7211H14.22C11.2033 18.7211 8.71906 21.2054 8.71906 24.222M22.3826 24.222V28.7469C22.3826 32.5621 19.2773 35.5787 15.5508 35.5787C11.7357 35.5787 8.71906 32.5621 8.71906 28.7469V24.222M22.3826 24.222C18.8801 26.0675 12.9778 23.6008 12.9778 23.6008L8.71906 24.222" stroke="#662483" stroke-width="2" stroke-miterlimit="10" stroke-linejoin="round"/>
<path d="M69.5842 66.8097H77.6581V56.074C77.6581 50.0408 74.464 44.4511 69.2293 41.5232L62.8411 37.8855L62.7524 37.9742L62.5749 37.8855C57.9612 41.8781 53.6137 43.83 49.4437 43.9188C45.2736 43.7413 40.9261 41.8781 36.3124 37.8855L36.135 37.9742L36.0463 37.8855L29.6581 41.5232C24.4233 44.5398 21.2292 50.0408 21.2292 56.074V66.8097H29.3032" stroke="#662483" stroke-width="2" stroke-miterlimit="10" stroke-linecap="round" stroke-linejoin="round"/>
<path d="M49.5324 82.4253C54.2722 82.4253 58.5188 80.3136 61.3826 76.9796L49.2662 66.5436L49.5324 51.1942C40.9082 51.1942 33.9169 58.1855 33.9169 66.8098C33.9169 75.434 40.9082 82.4253 49.5324 82.4253Z" fill="#662483" fill-opacity="0.1"/>
<path fill-rule="evenodd" clip-rule="evenodd" d="M49.5324 82.4253C54.2722 82.4253 58.5188 80.3136 61.3826 76.9796L49.2662 66.5436L49.5324 51.1942C58.1387 51.1942 65.1479 58.2034 65.1479 66.8098C65.1479 58.1855 58.1566 51.1942 49.5324 51.1942C40.9082 51.1942 33.9169 58.1855 33.9169 66.8098C33.9169 75.434 40.9082 82.4253 49.5324 82.4253Z" fill="#662483" fill-opacity="0.1"/>
<path d="M65.1479 66.8098C65.1479 58.1855 58.1566 51.1942 49.5324 51.1942M65.1479 66.8098C65.1479 58.2034 58.1387 51.1942 49.5324 51.1942M65.1479 66.8098L49.2662 66.5436M65.1479 66.8098C65.1479 70.6942 63.7296 74.2473 61.3826 76.9796M49.5324 51.1942C40.9082 51.1942 33.9169 58.1855 33.9169 66.8098C33.9169 75.434 40.9082 82.4253 49.5324 82.4253C54.2722 82.4253 58.5188 80.3136 61.3826 76.9796M49.5324 51.1942L49.2662 66.5436M49.2662 66.5436L61.3826 76.9796M61.4215 77.0131L61.3826 76.9796" stroke="#662483" stroke-width="2" stroke-miterlimit="10" stroke-linejoin="round"/>
</svg>
