<svg fill="none" height="24" viewBox="0 0 24 24" width="24" xmlns="http://www.w3.org/2000/svg"><g fill="#fff"><path d="m4.983 7.19704c1.2084 0 2.188-.9796 2.188-2.188 0-1.20839-.9796-2.188-2.188-2.188s-2.188.97961-2.188 2.188c0 1.2084.9796 2.188 2.188 2.188z"/><path d="m9.237 8.85493v12.13897h3.769v-6.003c0-1.584.298-3.118 2.262-3.118 1.937 0 1.961 1.811 1.961 3.218v5.904h3.771v-6.657c0-3.27-.704-5.78297-4.526-5.78297-1.835 0-3.065 1.007-3.568 1.95997h-.051v-1.65997zm-6.142 0h3.775v12.13897h-3.775z"/></g></svg>