<svg fill="none" height="64" viewBox="0 0 100 64" width="100" xmlns="http://www.w3.org/2000/svg"><g fill="#662483"><path d="m15.9117 28.1017 1.6415-11.5072h.1872l4.6508 9.4492 4.6077-9.4492h.1871l1.6415 11.5072h-1.1231l-1.1231-8.2319-4.0461 8.2319h-.288l-4.0892-8.2898-1.1231 8.2898z"/><path d="m29.5754 19.5938h1.1519l2.9086 6.5507 2.8222-6.5507h1.1519l-5.0396 11.6231h-1.1519l1.6271-3.7536z"/><path d="m38.704 16.5945h2.3038c1.2527 0 2.1454.1159 2.707.3478.5471.2319.9935.6087 1.3103 1.1304.3168.5218.4751 1.145.4751 1.8696 0 .7971-.2015 1.4783-.6191 2-.4176.5362-.9791.8986-1.6991 1.1159-.4175.116-1.1807.174-2.2894.174v4.8695h-2.1742v-11.5072zm2.1742 4.5072h.6912c.5471 0 .9215-.0435 1.1375-.1159.2159-.0725.3743-.2029.5039-.3913.1152-.1739.1872-.4058.1872-.6522 0-.4493-.1728-.7681-.5184-.971-.2447-.1449-.7055-.2319-1.3822-.2319h-.6192z"/><path d="m46.494 19.5941h1.8143v1.0725c.2016-.4203.4607-.7392.7919-.9566.3312-.2173.6912-.3333 1.0799-.3333.2736 0 .5616.0725.864.2174l-.6624 1.8406c-.2448-.1305-.4608-.1884-.6191-.1884-.3312 0-.6048.2029-.8352.6087s-.3311 1.2029-.3311 2.3913l.0144.4203v3.4492h-2.1023v-8.5217z"/><path d="m55.6657 19.3767c.7919 0 1.5551.2029 2.2462.6087.7056.4058 1.2527.942 1.6415 1.6377.3888.6956.5903 1.4348.5903 2.2319s-.2015 1.5507-.5903 2.2608c-.4032.6957-.9359 1.2464-1.6271 1.6377-.6911.3913-1.4399.5942-2.2606.5942-1.2095 0-2.2462-.4348-3.1102-1.3043-.8639-.8696-1.2815-1.9276-1.2815-3.1594 0-1.3334.4896-2.4348 1.4543-3.3189.8496-.8116 1.8287-1.1884 2.9374-1.1884zm.0288 2c-.6624 0-1.2095.2319-1.6415.6957-.4319.4637-.6623 1.0579-.6623 1.7681 0 .7391.216 1.3478.6479 1.7971.432.4637.9791.6956 1.6415.6956.6623 0 1.2239-.2319 1.6559-.6956.4463-.4638.6623-1.058.6623-1.7971 0-.7247-.216-1.3189-.6479-1.7826-.4176-.4493-.9792-.6812-1.6559-.6812z"/><path d="m63.5854 19.5941v.942c.3888-.3913.7919-.6811 1.2383-.8695s.9215-.2899 1.4255-.2899c1.1087 0 2.0447.4203 2.8078 1.2609.7776.8406 1.1519 1.913 1.1519 3.2319 0 1.2608-.4032 2.3333-1.1951 3.1739-.7919.855-1.7423 1.2753-2.8366 1.2753-.4895 0-.9359-.0869-1.3535-.2608s-.8351-.4638-1.2527-.8551v4.0145h-2.0878v-11.6232zm2.2318 1.7536c-.6623 0-1.2239.2319-1.6702.6957-.4464.4637-.6624 1.0579-.6624 1.7971 0 .7536.216 1.3623.6624 1.8406.4463.4637.9935.6956 1.6702.6956.648 0 1.1952-.2319 1.6415-.7101.4464-.4783.6624-1.087.6624-1.8116 0-.7247-.216-1.3334-.648-1.7971-.4319-.4783-.9935-.7102-1.6559-.7102z"/><path d="m75.5651 19.3767c.7919 0 1.5551.2029 2.2462.6087.7056.4058 1.2527.942 1.6415 1.6377.3888.6956.5904 1.4348.5904 2.2319s-.2016 1.5507-.5904 2.2608c-.4032.6957-.9359 1.2464-1.6271 1.6377-.6911.3913-1.4399.5942-2.2606.5942-1.2095 0-2.2462-.4348-3.1101-1.3043-.864-.8696-1.2815-1.9276-1.2815-3.1594 0-1.3334.4895-2.4348 1.4542-3.3189.864-.8116 1.8431-1.1884 2.9374-1.1884zm.0432 2c-.6623 0-1.2095.2319-1.6415.6957-.4319.4637-.6623 1.0579-.6623 1.7681 0 .7391.216 1.3478.6479 1.7971.432.4637.9792.6956 1.6415.6956.6624 0 1.2239-.2319 1.6559-.6956.4463-.4638.6623-1.058.6623-1.7971 0-.7247-.216-1.3189-.6479-1.7826-.432-.4493-.9791-.6812-1.6559-.6812z"/><path d="m86.5655 20.7828-1.3103 1.3189c-.5327-.5363-1.0223-.7971-1.4542-.7971-.2448 0-.432.0579-.5616.1594-.1296.1014-.2016.2319-.2016.3768 0 .1159.0432.2174.1296.3188.0864.1015.3024.2319.6336.3913l.7775.3913c.8207.4058 1.3823.8261 1.6847 1.2464.3023.4203.4607.9131.4607 1.4928 0 .7536-.2736 1.3913-.8351 1.8985-.5472.5073-1.2959.7536-2.2174.7536-1.2383 0-2.2175-.4782-2.9518-1.4492l1.3103-1.4348c.2448.2898.5472.5217.8783.7101.3312.1739.6336.2754.8928.2754.2735 0 .5039-.0725.6767-.2029s.2592-.2899.2592-.4638c0-.3333-.3024-.6521-.9215-.9565l-.72-.3623c-1.3679-.6957-2.059-1.5652-2.059-2.6087 0-.6667.2592-1.2464.7775-1.7246.5184-.4783 1.1807-.7102 1.9727-.7102.5471 0 1.0655.1159 1.555.3623.4752.2174.8928.5652 1.2239 1.0145z"/><path d="m94.2408 19.5941h2.1166v8.5072h-2.1166v-.8985c-.4176.3913-.8352.6812-1.2527.8551-.4176.1739-.864.2608-1.3535.2608-1.0943 0-2.0303-.4202-2.8366-1.2753-.7919-.8551-1.1951-1.9131-1.1951-3.1739 0-1.3189.3888-2.3913 1.1519-3.2319.7776-.8406 1.7135-1.2609 2.8078-1.2609.5039 0 .9791.1015 1.4255.2899.4463.1884.8639.4782 1.2383.8695v-.942zm-2.2318 1.7536c-.6624 0-1.1952.2319-1.6415.6957-.432.4637-.648 1.0724-.648 1.7971 0 .7391.216 1.3478.6624 1.8116.4463.4782.9791.7101 1.6271.7101.6623 0 1.2239-.2319 1.6558-.6956.432-.4638.6624-1.0725.6624-1.8406 0-.7391-.216-1.3478-.6624-1.7971-.4319-.4493-.9791-.6812-1.6558-.6812z"/><path d="m97.8831 16.3044h2.1167v11.7971h-2.1167z"/></g><path d="m26.8539 33.7105-1.5263 1.4638c-1.0367-1.1015-2.203-1.6522-3.4989-1.6522-1.0944 0-2.0159.3768-2.7646 1.1304-.7488.7537-1.1231 1.6812-1.1231 2.7826 0 .7681.1727 1.4493.5039 2.0435s.8064 1.058 1.4111 1.4058c.6048.3333 1.2815.5072 2.0159.5072.6335 0 1.2095-.1159 1.7278-.3623.5184-.2319 1.0943-.6666 1.7279-1.2898l1.4687 1.5507c-.8496.8261-1.6415 1.4058-2.3902 1.7246-.7488.3189-1.6127.4783-2.5774.4783-1.7711 0-3.2398-.5652-4.3629-1.6957-1.1375-1.1304-1.6991-2.5942-1.6991-4.3623 0-1.1449.2592-2.1739.7776-3.0579.5183-.8986 1.2527-1.6087 2.2174-2.145.9647-.5362 2.0014-.8115 3.1102-.8115.9503 0 1.8574.2029 2.7213.6086.864.4058 1.6271.9421 2.2607 1.6812z" fill="#009cc0"/><path d="m32.0951 34.4644c.792 0 1.5551.2029 2.2463.6087.7055.4057 1.2527.942 1.6414 1.6376.3888.6957.5904 1.4348.5904 2.2319s-.2016 1.5507-.5904 2.2609c-.4031.6956-.9359 1.2464-1.627 1.6377-.6912.3913-1.4399.5942-2.2607.5942-1.2095 0-2.2462-.4348-3.1101-1.3044-.8639-.8695-1.2815-1.9275-1.2815-3.1594 0-1.3333.4896-2.4348 1.4543-3.3188.8639-.7971 1.8286-1.1884 2.9373-1.1884zm.0288 2.0144c-.6623 0-1.2095.2319-1.6414.6957-.432.4638-.6624 1.058-.6624 1.7681 0 .7391.216 1.3478.648 1.7971.4319.4638.9791.6957 1.6414.6957.6624 0 1.2239-.2319 1.6559-.6957.4464-.4638.6624-1.058.6624-1.7971 0-.7246-.216-1.3188-.648-1.7826-.4176-.4493-.9791-.6812-1.6559-.6812z" fill="#009cc0"/><path d="m44.1611 34.6959h2.1166v8.5072h-2.1166v-.8985c-.4176.3913-.8352.6811-1.2527.855-.4176.174-.864.2609-1.3535.2609-1.0943 0-2.0303-.4203-2.8366-1.2753-.8063-.8551-1.1951-1.9131-1.1951-3.1739 0-1.3189.3888-2.3913 1.1519-3.2319.7775-.8406 1.7135-1.2609 2.8078-1.2609.5039 0 .9791.1015 1.4255.2899.4463.1884.8639.4782 1.2383.8695v-.942zm-2.2319 1.7536c-.6623 0-1.1951.2319-1.6414.6957-.432.4637-.648 1.0724-.648 1.7971 0 .7391.216 1.3478.6624 1.8116.4463.4782.9791.7101 1.627.7101.6624 0 1.2239-.2319 1.6559-.6957.432-.4637.6624-1.0724.6624-1.8405 0-.7392-.216-1.3478-.6624-1.7971-.432-.4638-.9791-.6812-1.6559-.6812z" fill="#009cc0"/><path d="m56.3138 36.4055-1.771.971c-.3312-.3478-.6624-.5942-.9791-.7246-.3312-.1305-.7056-.2029-1.1375-.2029-.792 0-1.4399.2319-1.9295.7101-.4896.4783-.7343 1.087-.7343 1.8261 0 .7246.2303 1.3188.7055 1.7681.4752.4638 1.0943.6812 1.8575.6812.9503 0 1.6846-.3189 2.2174-.971l1.6702 1.1594c-.9071 1.1884-2.1886 1.7826-3.8444 1.7826-1.4831 0-2.6494-.4493-3.499-1.3334-.8495-.884-1.2671-1.9275-1.2671-3.1159 0-.8261.2016-1.5797.6192-2.2753.4032-.6957.9791-1.2319 1.7134-1.6377.7344-.4058 1.5551-.5942 2.4623-.5942.8351 0 1.5982.1739 2.2606.5072.6767.3623 1.2239.8406 1.6558 1.4493z" fill="#009cc0"/><path d="m57.8256 31.4058h2.1022v4.1449c.4176-.3623.8351-.6232 1.2527-.8116.4176-.1739.8495-.2754 1.2815-.2754.8351 0 1.5407.2899 2.1166.8696.4896.5072.7344 1.2464.7344 2.2319v5.6231h-2.0879v-3.7391c0-.9855-.0432-1.6522-.144-2-.0863-.3478-.2591-.6087-.4751-.7826-.2304-.1739-.504-.2609-.8351-.2609-.432 0-.8064.145-1.1088.4348-.3023.2899-.5183.6812-.6479 1.1739-.0576.2609-.0864.8406-.0864 1.7537v3.4202h-2.1022z" fill="#009cc0"/><path d="m10.3528 20.2609h-10.3528l14.3844-20.2609h10.3384z" fill="#009cc0"/><path d="m68.956 64.0005h-10.3527l15.8387-21.9275h10.0504z" fill="#009cc0"/><path d="m24.0172 13.6957h10.3528l-9.6184-13.6957h-10.3528z" fill="#662483"/><path d="m58.6035 63.9995h10.3527l-11.3894-16.145h-10.3528z" fill="#662483"/><path d="m69.7623 42.0723h19.6832l-4.118-8.3623z" fill="#009cc0"/><path d="m65.155 31.4778h1.4255v.4927h-.4751v2.116h-.504v-2.116h-.4608v-.4927z" fill="#009cc0"/><path d="m67.0847 31.4778h.4751l.6048 1.8116.6047-1.8116h.4751l.432 2.6087h-.4751l-.2736-1.6377-.5472 1.6377h-.4319l-.5472-1.6377-.2879 1.6377h-.4752z" fill="#009cc0"/></svg>