<svg width="66" height="75" viewBox="0 0 66 75" fill="none" xmlns="http://www.w3.org/2000/svg">
<path d="M49.3037 41.7254L42.8844 38.0699C32.988 46.629 24.2506 45.7374 16.2265 38.0699L9.80723 41.7254C4.54698 44.7567 1.33734 50.2844 1.33734 56.3471V67.135H20.8627" stroke="#662483" stroke-width="2" stroke-miterlimit="10" stroke-linecap="round" stroke-linejoin="round"/>
<path d="M15.959 12.3038C26.9253 19.9713 36.4651 9.27246 36.4651 9.27246L43.241 12.3038" fill="#662483" fill-opacity="0.1"/>
<path d="M26.9253 1.33752C20.8627 1.33752 15.959 6.24114 15.959 12.3038C26.9253 19.9713 36.4651 9.27246 36.4651 9.27246L43.241 12.3038C43.241 6.24114 38.3374 1.33752 32.2747 1.33752H26.9253Z" fill="#662483" fill-opacity="0.1"/>
<path fill-rule="evenodd" clip-rule="evenodd" d="M43.241 12.3038L36.4651 9.27246C36.4651 9.27246 26.9253 19.9713 15.959 12.3038C15.959 6.24114 20.8627 1.33752 26.9253 1.33752H32.2747C38.3374 1.33752 43.241 6.24114 43.241 12.3038Z" fill="#662483" fill-opacity="0.1"/>
<path d="M15.959 12.3038V21.3086C15.959 28.8869 22.1109 34.9496 29.6 34.9496C37.0892 34.9496 43.241 28.8869 43.241 21.3978V12.3038M15.959 12.3038C15.959 6.24114 20.8627 1.33752 26.9253 1.33752H32.2747C38.3374 1.33752 43.241 6.24114 43.241 12.3038M15.959 12.3038C26.9253 19.9713 36.4651 9.27246 36.4651 9.27246L43.241 12.3038" stroke="#662483" stroke-width="2" stroke-miterlimit="10" stroke-linejoin="round"/>
<path d="M35.0386 58.8435H25.588V73.3761H35.0386V58.8435Z" fill="#662483" fill-opacity="0.1" stroke="#662483" stroke-width="2" stroke-miterlimit="10" stroke-linejoin="round"/>
<path d="M49.9277 53.0483H40.4771V73.4652H49.9277V53.0483Z" fill="#662483" fill-opacity="0.1" stroke="#662483" stroke-width="2" stroke-miterlimit="10" stroke-linejoin="round"/>
<path d="M64.8169 41.1904H55.3663V73.376H64.8169V41.1904Z" fill="#662483" fill-opacity="0.1" stroke="#662483" stroke-width="2" stroke-miterlimit="10" stroke-linejoin="round"/>
</svg>
