<?xml version="1.0" encoding="utf-8"?>
<!-- Generator: Adobe Illustrator 26.0.3, SVG Export Plug-In . SVG Version: 6.00 Build 0)  -->
<svg version="1.1" id="Layer_1" xmlns="http://www.w3.org/2000/svg" xmlns:xlink="http://www.w3.org/1999/xlink" x="0px" y="0px"
	 viewBox="0 0 150.3 29" style="enable-background:new 0 0 150.3 29;" xml:space="preserve">
<style type="text/css">
	.st0{fill:#662483;}
</style>
<path class="st0" d="M85.6,28.7c-1.5,0-2.8-0.2-4-0.7c-1.1-0.5-2-1.2-2.7-2s-1.3-1.8-1.6-3c-0.4-1.1-0.5-2.3-0.5-3.6
	c0-2.5,0.4-4.8,1.2-6.9c0.8-2.1,1.8-3.9,3.1-5.4c1.3-1.6,2.6-3,4.2-4.1c1.5-1.1,3.1-2.1,4.6-2.7l1,1.4c-2.1,1.9-3.8,3.7-5.1,5.2
	c-1.3,1.5-1.9,2.8-1.9,3.8c0,0.6,0.3,1.1,0.8,1.5s1.2,0.7,2,1c0.7,0.3,1.5,0.6,2.3,0.9c0.8,0.4,1.6,0.8,2.2,1.4
	c0.7,0.6,1.3,1.3,1.7,2.1c0.5,0.9,0.7,2,0.7,3.3c0,0.8-0.2,1.7-0.5,2.6s-0.8,1.8-1.5,2.5c-0.7,0.8-1.5,1.4-2.5,1.9
	C88,28.5,86.9,28.7,85.6,28.7z M65.7,28.7c-1.5,0-2.8-0.2-4-0.7c-1.1-0.5-2-1.2-2.7-2s-1.3-1.8-1.6-3s-0.5-2.3-0.5-3.6
	c0-2.5,0.4-4.8,1.2-6.9s1.8-3.9,3.1-5.4c1.3-1.6,2.6-3,4.2-4.1c1.5-1.1,3.1-2.1,4.6-2.7l1,1.4c-2.1,1.9-3.8,3.7-5.1,5.2
	C64.6,8.4,64,9.7,64,10.7c0,0.6,0.3,1.1,0.8,1.5s1.2,0.7,2,1c0.7,0.3,1.5,0.6,2.3,0.9c0.8,0.4,1.6,0.8,2.2,1.4
	c0.7,0.6,1.3,1.3,1.7,2.1c0.5,0.9,0.7,2,0.7,3.3c0,0.8-0.2,1.7-0.5,2.6s-0.8,1.8-1.5,2.5c-0.7,0.8-1.5,1.4-2.5,1.9
	C68.2,28.5,67,28.7,65.7,28.7z"/>
<rect x="117.8" y="14" class="st0" width="32" height="1"/>
<rect x="0.5" y="14" class="st0" width="32" height="1"/>
</svg>
